<?xml version="1.0" standalone="no"?>
<!DOCTYPE svg PUBLIC "-//W3C//DTD SVG 20010904//EN"
 "http://www.w3.org/TR/2001/REC-SVG-20010904/DTD/svg10.dtd">
<svg version="1.0" xmlns="http://www.w3.org/2000/svg"
 width="700.000000pt" height="700.000000pt" viewBox="0 0 700.000000 700.000000"
 preserveAspectRatio="xMidYMid meet">
<metadata>
Created by potrace 1.11, written by Peter Selinger 2001-2013
</metadata>
<g transform="translate(0.000000,700.000000) scale(0.100000,-0.100000)"
fill="#000000" stroke="none">
<path d="M0 3500 l0 -3500 3500 0 3500 0 0 3500 0 3500 -3500 0 -3500 0 0
-3500z m3680 1249 c255 -40 464 -210 569 -464 65 -156 95 -305 111 -553 39
-626 -141 -1096 -486 -1270 -124 -62 -192 -76 -374 -77 -189 0 -242 11 -380
77 -70 34 -100 56 -175 132 -108 109 -163 202 -216 361 -64 192 -83 331 -83
615 0 183 4 269 17 340 71 406 223 650 482 775 162 78 322 97 535 64z m-1878
-996 l3 -968 248 -3 247 -2 -2 -178 -3 -177 -700 0 -700 0 -3 177 -2 178 252
2 253 3 3 713 c1 391 -1 712 -5 712 -5 0 -102 -72 -217 -160 -115 -88 -210
-160 -212 -160 -6 0 -184 239 -189 253 -2 7 154 132 368 295 l371 282 143 0
143 0 2 -967z m3938 -3 l0 -970 245 0 245 0 0 -180 0 -180 -700 0 -700 0 0
180 0 180 250 0 250 0 0 716 0 716 -37 -28 c-21 -15 -112 -85 -203 -154 -91
-69 -170 -129 -177 -133 -8 -5 -44 35 -103 113 -50 66 -93 126 -95 133 -3 7
150 130 367 295 l371 282 143 0 144 0 0 -970z"/>
<path d="M3385 4388 c-89 -32 -163 -106 -216 -213 -47 -97 -65 -165 -84 -315
-17 -127 -21 -464 -6 -458 5 2 185 164 399 362 l390 358 -20 47 c-43 104 -125
184 -222 215 -55 18 -195 20 -241 4z"/>
<path d="M3537 3404 c-214 -196 -391 -362 -393 -369 -8 -19 41 -117 85 -173
24 -30 62 -60 102 -82 61 -33 68 -35 169 -35 101 0 108 1 168 34 133 72 210
214 247 458 18 116 31 468 18 501 -8 20 -38 -5 -396 -334z"/>
</g>
</svg>
