<?xml version="1.0" encoding="utf-8"?>
<!-- Generator: Adobe Illustrator 23.0.3, SVG Export Plug-In . SVG Version: 6.00 Build 0)  -->
<svg version="1.1" id="Layer_1" xmlns="http://www.w3.org/2000/svg" xmlns:xlink="http://www.w3.org/1999/xlink" x="0px" y="0px"
	 viewBox="0 0 512 512" style="enable-background:new 0 0 512 512;" xml:space="preserve">
<style type="text/css">
	.st0{fill:#FFFFFF;}
</style>
<rect width="512" height="512"/>
<g>
	<path class="st0" d="M65.36,308.42h36.74V203.49l-31.69,24.25L56,208.54l54.74-41.78h21.13v141.66h36.01v26.41H65.36V308.42z"/>
	<path class="st0" d="M193.09,250.55c0-14.56,1.52-27.33,4.58-38.3c3.05-10.96,7.35-20.05,12.89-27.25
		c5.55-7.2,12.17-12.61,19.89-16.21c7.71-3.6,16.31-5.4,25.79-5.4c20.24,0,35.83,7.08,46.75,21.25
		c10.93,14.17,16.39,36.13,16.39,65.91c0,14.73-1.53,27.57-4.58,38.54c-3.05,10.97-7.35,20.09-12.89,27.37
		c-5.55,7.29-12.21,12.73-20,16.33c-7.8,3.6-16.43,5.4-25.91,5.4c-20.41,0-35.99-7.48-46.76-22.45
		C198.47,300.77,193.09,279.05,193.09,250.55z M224.31,250.55c0,2.4,0.04,4.68,0.12,6.84c0.08,2.16,0.2,4.36,0.36,6.6l58.11-53.54
		c-4.76-13.76-13.73-20.65-26.91-20.65c-10.16,0-17.98,4.92-23.46,14.77C227.05,214.42,224.31,229.75,224.31,250.55z M288.17,250.55
		c0-2.56-0.04-5-0.12-7.32c-0.08-2.32-0.2-4.6-0.36-6.84l-58.35,53.54c4.92,14.57,13.89,21.85,26.91,21.85
		c10.16,0,18.02-4.88,23.58-14.65C285.39,287.37,288.17,271.84,288.17,250.55z"/>
	<path class="st0" d="M353.48,308.42h36.73V203.49l-31.69,24.25l-14.41-19.21l54.74-41.78h21.13v141.66H456v26.41H353.48V308.42z"/>
</g>
</svg>
